<mxfile host="app.diagrams.net" agent="Mozilla/5.0 (Windows NT 10.0; Win64; x64) AppleWebKit/537.36 (KHTML, like Gecko) Chrome/135.0.0.0 Safari/537.36" version="26.2.13">
  <diagram name="Page-1" id="tQlIO5hCSHMGpnpE331W">
    <mxGraphModel dx="1827" dy="851" grid="0" gridSize="10" guides="1" tooltips="1" connect="1" arrows="1" fold="1" page="0" pageScale="1" pageWidth="850" pageHeight="1100" math="0" shadow="0">
      <root>
        <mxCell id="0" />
        <mxCell id="1" parent="0" />
        <mxCell id="vYt_MYBXlAKT3WQaYmDF-1" value="" style="swimlane;startSize=0;" vertex="1" parent="1">
          <mxGeometry x="-550" y="85" width="220" height="475" as="geometry" />
        </mxCell>
        <mxCell id="vYt_MYBXlAKT3WQaYmDF-4" value="&lt;font style=&quot;font-size: 16px;&quot;&gt;Source Table&lt;/font&gt;" style="text;html=1;align=center;verticalAlign=middle;whiteSpace=wrap;rounded=0;" vertex="1" parent="vYt_MYBXlAKT3WQaYmDF-1">
          <mxGeometry x="50" y="20" width="110" height="20" as="geometry" />
        </mxCell>
        <mxCell id="vYt_MYBXlAKT3WQaYmDF-11" value="CR_DIM_CUSTOMER" style="swimlane;fontStyle=0;childLayout=stackLayout;horizontal=1;startSize=30;horizontalStack=0;resizeParent=1;resizeParentMax=0;resizeLast=0;collapsible=1;marginBottom=0;whiteSpace=wrap;html=1;" vertex="1" parent="vYt_MYBXlAKT3WQaYmDF-1">
          <mxGeometry x="10" y="75" width="140" height="150" as="geometry">
            <mxRectangle x="10" y="75" width="156" height="30" as="alternateBounds" />
          </mxGeometry>
        </mxCell>
        <mxCell id="vYt_MYBXlAKT3WQaYmDF-12" value="Liability_Number" style="text;strokeColor=none;fillColor=none;align=left;verticalAlign=middle;spacingLeft=4;spacingRight=4;overflow=hidden;points=[[0,0.5],[1,0.5]];portConstraint=eastwest;rotatable=0;whiteSpace=wrap;html=1;" vertex="1" parent="vYt_MYBXlAKT3WQaYmDF-11">
          <mxGeometry y="30" width="140" height="30" as="geometry" />
        </mxCell>
        <mxCell id="vYt_MYBXlAKT3WQaYmDF-13" value="Flag" style="text;strokeColor=none;fillColor=none;align=left;verticalAlign=middle;spacingLeft=4;spacingRight=4;overflow=hidden;points=[[0,0.5],[1,0.5]];portConstraint=eastwest;rotatable=0;whiteSpace=wrap;html=1;" vertex="1" parent="vYt_MYBXlAKT3WQaYmDF-11">
          <mxGeometry y="60" width="140" height="30" as="geometry" />
        </mxCell>
        <mxCell id="vYt_MYBXlAKT3WQaYmDF-14" value="Source_System" style="text;strokeColor=none;fillColor=none;align=left;verticalAlign=middle;spacingLeft=4;spacingRight=4;overflow=hidden;points=[[0,0.5],[1,0.5]];portConstraint=eastwest;rotatable=0;whiteSpace=wrap;html=1;" vertex="1" parent="vYt_MYBXlAKT3WQaYmDF-11">
          <mxGeometry y="90" width="140" height="30" as="geometry" />
        </mxCell>
        <mxCell id="vYt_MYBXlAKT3WQaYmDF-61" value="CIF" style="text;strokeColor=none;fillColor=none;align=left;verticalAlign=middle;spacingLeft=4;spacingRight=4;overflow=hidden;points=[[0,0.5],[1,0.5]];portConstraint=eastwest;rotatable=0;whiteSpace=wrap;html=1;" vertex="1" parent="vYt_MYBXlAKT3WQaYmDF-11">
          <mxGeometry y="120" width="140" height="30" as="geometry" />
        </mxCell>
        <mxCell id="vYt_MYBXlAKT3WQaYmDF-28" value="CR_DIM_COLLATERAL&lt;div&gt;&lt;br&gt;&lt;/div&gt;" style="swimlane;fontStyle=0;childLayout=stackLayout;horizontal=1;startSize=30;horizontalStack=0;resizeParent=1;resizeParentMax=0;resizeLast=0;collapsible=1;marginBottom=0;whiteSpace=wrap;html=1;" vertex="1" parent="vYt_MYBXlAKT3WQaYmDF-1">
          <mxGeometry x="10" y="275" width="150" height="120" as="geometry">
            <mxRectangle x="10" y="275" width="165" height="41" as="alternateBounds" />
          </mxGeometry>
        </mxCell>
        <mxCell id="vYt_MYBXlAKT3WQaYmDF-29" value="CIF" style="text;strokeColor=none;fillColor=none;align=left;verticalAlign=middle;spacingLeft=4;spacingRight=4;overflow=hidden;points=[[0,0.5],[1,0.5]];portConstraint=eastwest;rotatable=0;whiteSpace=wrap;html=1;" vertex="1" parent="vYt_MYBXlAKT3WQaYmDF-28">
          <mxGeometry y="30" width="150" height="30" as="geometry" />
        </mxCell>
        <mxCell id="vYt_MYBXlAKT3WQaYmDF-30" value="Flag" style="text;strokeColor=none;fillColor=none;align=left;verticalAlign=middle;spacingLeft=4;spacingRight=4;overflow=hidden;points=[[0,0.5],[1,0.5]];portConstraint=eastwest;rotatable=0;whiteSpace=wrap;html=1;" vertex="1" parent="vYt_MYBXlAKT3WQaYmDF-28">
          <mxGeometry y="60" width="150" height="30" as="geometry" />
        </mxCell>
        <mxCell id="vYt_MYBXlAKT3WQaYmDF-31" value="Source_System&lt;div&gt;&lt;br&gt;&lt;/div&gt;" style="text;strokeColor=none;fillColor=none;align=left;verticalAlign=middle;spacingLeft=4;spacingRight=4;overflow=hidden;points=[[0,0.5],[1,0.5]];portConstraint=eastwest;rotatable=0;whiteSpace=wrap;html=1;" vertex="1" parent="vYt_MYBXlAKT3WQaYmDF-28">
          <mxGeometry y="90" width="150" height="30" as="geometry" />
        </mxCell>
        <mxCell id="vYt_MYBXlAKT3WQaYmDF-16" value="" style="swimlane;startSize=0;" vertex="1" parent="1">
          <mxGeometry y="70" width="280" height="490" as="geometry" />
        </mxCell>
        <mxCell id="vYt_MYBXlAKT3WQaYmDF-17" value="&lt;font style=&quot;font-size: 16px;&quot;&gt;&lt;b&gt;Migration Tables&amp;nbsp;&lt;/b&gt;&lt;/font&gt;" style="text;html=1;align=center;verticalAlign=middle;resizable=0;points=[];autosize=1;strokeColor=none;fillColor=none;container=1;" vertex="1" parent="vYt_MYBXlAKT3WQaYmDF-16">
          <mxGeometry x="31" y="5" width="148" height="31" as="geometry" />
        </mxCell>
        <mxCell id="vYt_MYBXlAKT3WQaYmDF-18" value="CR_T24_MIGRATION" style="swimlane;fontStyle=0;childLayout=stackLayout;horizontal=1;startSize=30;horizontalStack=0;resizeParent=1;resizeParentMax=0;resizeLast=0;collapsible=1;marginBottom=0;whiteSpace=wrap;html=1;" vertex="1" parent="vYt_MYBXlAKT3WQaYmDF-16">
          <mxGeometry x="25" y="80" width="140" height="120" as="geometry">
            <mxRectangle x="25" y="80" width="153" height="30" as="alternateBounds" />
          </mxGeometry>
        </mxCell>
        <mxCell id="vYt_MYBXlAKT3WQaYmDF-19" value="Liability_Number" style="text;strokeColor=none;fillColor=none;align=left;verticalAlign=middle;spacingLeft=4;spacingRight=4;overflow=hidden;points=[[0,0.5],[1,0.5]];portConstraint=eastwest;rotatable=0;whiteSpace=wrap;html=1;" vertex="1" parent="vYt_MYBXlAKT3WQaYmDF-18">
          <mxGeometry y="30" width="140" height="30" as="geometry" />
        </mxCell>
        <mxCell id="vYt_MYBXlAKT3WQaYmDF-20" value="Flag" style="text;strokeColor=none;fillColor=none;align=left;verticalAlign=middle;spacingLeft=4;spacingRight=4;overflow=hidden;points=[[0,0.5],[1,0.5]];portConstraint=eastwest;rotatable=0;whiteSpace=wrap;html=1;" vertex="1" parent="vYt_MYBXlAKT3WQaYmDF-18">
          <mxGeometry y="60" width="140" height="30" as="geometry" />
        </mxCell>
        <mxCell id="vYt_MYBXlAKT3WQaYmDF-21" value="Source_System" style="text;strokeColor=none;fillColor=none;align=left;verticalAlign=middle;spacingLeft=4;spacingRight=4;overflow=hidden;points=[[0,0.5],[1,0.5]];portConstraint=eastwest;rotatable=0;whiteSpace=wrap;html=1;" vertex="1" parent="vYt_MYBXlAKT3WQaYmDF-18">
          <mxGeometry y="90" width="140" height="30" as="geometry" />
        </mxCell>
        <mxCell id="vYt_MYBXlAKT3WQaYmDF-32" value="CR_T24_MIGRATION_COLLATERAL" style="swimlane;fontStyle=0;childLayout=stackLayout;horizontal=1;startSize=30;horizontalStack=0;resizeParent=1;resizeParentMax=0;resizeLast=0;collapsible=1;marginBottom=0;whiteSpace=wrap;html=1;" vertex="1" parent="vYt_MYBXlAKT3WQaYmDF-16">
          <mxGeometry x="20" y="250" width="210" height="120" as="geometry">
            <mxRectangle x="20" y="250" width="237" height="30" as="alternateBounds" />
          </mxGeometry>
        </mxCell>
        <mxCell id="vYt_MYBXlAKT3WQaYmDF-33" value="Liability_Number" style="text;strokeColor=none;fillColor=none;align=left;verticalAlign=middle;spacingLeft=4;spacingRight=4;overflow=hidden;points=[[0,0.5],[1,0.5]];portConstraint=eastwest;rotatable=0;whiteSpace=wrap;html=1;" vertex="1" parent="vYt_MYBXlAKT3WQaYmDF-32">
          <mxGeometry y="30" width="210" height="30" as="geometry" />
        </mxCell>
        <mxCell id="vYt_MYBXlAKT3WQaYmDF-34" value="Flag" style="text;strokeColor=none;fillColor=none;align=left;verticalAlign=middle;spacingLeft=4;spacingRight=4;overflow=hidden;points=[[0,0.5],[1,0.5]];portConstraint=eastwest;rotatable=0;whiteSpace=wrap;html=1;" vertex="1" parent="vYt_MYBXlAKT3WQaYmDF-32">
          <mxGeometry y="60" width="210" height="30" as="geometry" />
        </mxCell>
        <mxCell id="vYt_MYBXlAKT3WQaYmDF-35" value="Source_System" style="text;strokeColor=none;fillColor=none;align=left;verticalAlign=middle;spacingLeft=4;spacingRight=4;overflow=hidden;points=[[0,0.5],[1,0.5]];portConstraint=eastwest;rotatable=0;whiteSpace=wrap;html=1;" vertex="1" parent="vYt_MYBXlAKT3WQaYmDF-32">
          <mxGeometry y="90" width="210" height="30" as="geometry" />
        </mxCell>
        <mxCell id="vYt_MYBXlAKT3WQaYmDF-23" value="&lt;font style=&quot;font-size: 15px;&quot;&gt;Insert&lt;/font&gt;" style="text;html=1;align=center;verticalAlign=middle;resizable=0;points=[];autosize=1;strokeColor=none;fillColor=none;fontStyle=1;container=1;" vertex="1" parent="1">
          <mxGeometry x="-155" y="170" width="60" height="30" as="geometry" />
        </mxCell>
        <mxCell id="vYt_MYBXlAKT3WQaYmDF-37" value="Insert" style="text;html=1;align=center;verticalAlign=middle;resizable=0;points=[];autosize=1;strokeColor=none;fillColor=none;container=1;" vertex="1" parent="1">
          <mxGeometry x="-150" y="340" width="50" height="30" as="geometry" />
        </mxCell>
        <mxCell id="vYt_MYBXlAKT3WQaYmDF-219" style="edgeStyle=orthogonalEdgeStyle;rounded=0;orthogonalLoop=1;jettySize=auto;html=1;entryX=0;entryY=0.5;entryDx=0;entryDy=0;" edge="1" parent="1" source="vYt_MYBXlAKT3WQaYmDF-43" target="vYt_MYBXlAKT3WQaYmDF-201">
          <mxGeometry relative="1" as="geometry" />
        </mxCell>
        <mxCell id="vYt_MYBXlAKT3WQaYmDF-43" value="" style="swimlane;startSize=0;" vertex="1" parent="1">
          <mxGeometry x="790" y="70" width="330" height="490" as="geometry" />
        </mxCell>
        <mxCell id="vYt_MYBXlAKT3WQaYmDF-44" value="&lt;font style=&quot;font-size: 17px;&quot;&gt;Stage Table&lt;/font&gt;" style="text;html=1;align=center;verticalAlign=middle;resizable=0;points=[];autosize=1;strokeColor=none;fillColor=none;fontStyle=1" vertex="1" parent="vYt_MYBXlAKT3WQaYmDF-43">
          <mxGeometry x="100" y="5" width="110" height="30" as="geometry" />
        </mxCell>
        <mxCell id="vYt_MYBXlAKT3WQaYmDF-45" value="CR_STG_MODULE_STATUS_HISTORY" style="swimlane;fontStyle=0;childLayout=stackLayout;horizontal=1;startSize=30;horizontalStack=0;resizeParent=1;resizeParentMax=0;resizeLast=0;collapsible=1;marginBottom=0;whiteSpace=wrap;html=1;" vertex="1" parent="vYt_MYBXlAKT3WQaYmDF-43">
          <mxGeometry x="20" y="90" width="290" height="180" as="geometry">
            <mxRectangle x="20" y="90" width="260" height="30" as="alternateBounds" />
          </mxGeometry>
        </mxCell>
        <mxCell id="vYt_MYBXlAKT3WQaYmDF-46" value="Module_ID" style="text;strokeColor=none;fillColor=none;align=left;verticalAlign=middle;spacingLeft=4;spacingRight=4;overflow=hidden;points=[[0,0.5],[1,0.5]];portConstraint=eastwest;rotatable=0;whiteSpace=wrap;html=1;" vertex="1" parent="vYt_MYBXlAKT3WQaYmDF-45">
          <mxGeometry y="30" width="290" height="30" as="geometry" />
        </mxCell>
        <mxCell id="vYt_MYBXlAKT3WQaYmDF-47" value="Workflow_ID" style="text;strokeColor=none;fillColor=none;align=left;verticalAlign=middle;spacingLeft=4;spacingRight=4;overflow=hidden;points=[[0,0.5],[1,0.5]];portConstraint=eastwest;rotatable=0;whiteSpace=wrap;html=1;" vertex="1" parent="vYt_MYBXlAKT3WQaYmDF-45">
          <mxGeometry y="60" width="290" height="30" as="geometry" />
        </mxCell>
        <mxCell id="vYt_MYBXlAKT3WQaYmDF-48" value="Liability_Number" style="text;strokeColor=none;fillColor=none;align=left;verticalAlign=middle;spacingLeft=4;spacingRight=4;overflow=hidden;points=[[0,0.5],[1,0.5]];portConstraint=eastwest;rotatable=0;whiteSpace=wrap;html=1;" vertex="1" parent="vYt_MYBXlAKT3WQaYmDF-45">
          <mxGeometry y="90" width="290" height="30" as="geometry" />
        </mxCell>
        <mxCell id="vYt_MYBXlAKT3WQaYmDF-51" value="Customer_SKey" style="text;strokeColor=none;fillColor=none;align=left;verticalAlign=middle;spacingLeft=4;spacingRight=4;overflow=hidden;points=[[0,0.5],[1,0.5]];portConstraint=eastwest;rotatable=0;whiteSpace=wrap;html=1;" vertex="1" parent="vYt_MYBXlAKT3WQaYmDF-45">
          <mxGeometry y="120" width="290" height="30" as="geometry" />
        </mxCell>
        <mxCell id="vYt_MYBXlAKT3WQaYmDF-57" value="Batch_ID" style="text;strokeColor=none;fillColor=none;align=left;verticalAlign=middle;spacingLeft=4;spacingRight=4;overflow=hidden;points=[[0,0.5],[1,0.5]];portConstraint=eastwest;rotatable=0;whiteSpace=wrap;html=1;" vertex="1" parent="vYt_MYBXlAKT3WQaYmDF-45">
          <mxGeometry y="150" width="290" height="30" as="geometry" />
        </mxCell>
        <mxCell id="vYt_MYBXlAKT3WQaYmDF-63" style="edgeStyle=orthogonalEdgeStyle;rounded=0;orthogonalLoop=1;jettySize=auto;html=1;exitX=1;exitY=0.5;exitDx=0;exitDy=0;entryX=0;entryY=0.5;entryDx=0;entryDy=0;fillColor=#66B2FF;strokeColor=#3333FF;strokeWidth=2;" edge="1" parent="1" source="vYt_MYBXlAKT3WQaYmDF-12" target="vYt_MYBXlAKT3WQaYmDF-19">
          <mxGeometry relative="1" as="geometry" />
        </mxCell>
        <mxCell id="vYt_MYBXlAKT3WQaYmDF-64" style="edgeStyle=orthogonalEdgeStyle;rounded=0;orthogonalLoop=1;jettySize=auto;html=1;exitX=1;exitY=0.5;exitDx=0;exitDy=0;entryX=0;entryY=0.5;entryDx=0;entryDy=0;strokeColor=#33FF33;strokeWidth=2;" edge="1" parent="1" source="vYt_MYBXlAKT3WQaYmDF-29" target="vYt_MYBXlAKT3WQaYmDF-33">
          <mxGeometry relative="1" as="geometry" />
        </mxCell>
        <mxCell id="vYt_MYBXlAKT3WQaYmDF-67" value="" style="swimlane;startSize=0;" vertex="1" parent="1">
          <mxGeometry x="440" y="85" width="220" height="155" as="geometry">
            <mxRectangle x="440" y="85" width="50" height="44" as="alternateBounds" />
          </mxGeometry>
        </mxCell>
        <mxCell id="vYt_MYBXlAKT3WQaYmDF-69" value="Customer_T24_MIG_Join" style="text;html=1;align=center;verticalAlign=middle;resizable=0;points=[];autosize=1;strokeColor=none;fillColor=none;" vertex="1" parent="vYt_MYBXlAKT3WQaYmDF-67">
          <mxGeometry x="30" y="10" width="160" height="30" as="geometry" />
        </mxCell>
        <mxCell id="vYt_MYBXlAKT3WQaYmDF-87" value="C.CIF = t24.Liability_Number" style="text;html=1;align=center;verticalAlign=middle;resizable=0;points=[];autosize=1;strokeColor=none;fillColor=none;" vertex="1" parent="vYt_MYBXlAKT3WQaYmDF-67">
          <mxGeometry x="20" y="115" width="180" height="30" as="geometry" />
        </mxCell>
        <mxCell id="vYt_MYBXlAKT3WQaYmDF-88" value="CR_DIM_CUSTOMER AS C" style="text;html=1;align=center;verticalAlign=middle;resizable=0;points=[];autosize=1;strokeColor=none;fillColor=none;" vertex="1" parent="vYt_MYBXlAKT3WQaYmDF-67">
          <mxGeometry x="20" y="40" width="180" height="30" as="geometry" />
        </mxCell>
        <mxCell id="vYt_MYBXlAKT3WQaYmDF-90" value="CR_T24_MIGRATION t24&lt;div&gt;&lt;br&gt;&lt;/div&gt;" style="text;html=1;align=center;verticalAlign=middle;resizable=0;points=[];autosize=1;strokeColor=none;fillColor=none;" vertex="1" parent="vYt_MYBXlAKT3WQaYmDF-67">
          <mxGeometry x="30" y="65" width="160" height="40" as="geometry" />
        </mxCell>
        <mxCell id="vYt_MYBXlAKT3WQaYmDF-95" value="Join Condition&lt;div&gt;&lt;br&gt;&lt;/div&gt;" style="text;html=1;align=center;verticalAlign=middle;resizable=0;points=[];autosize=1;strokeColor=none;fillColor=none;fontStyle=1" vertex="1" parent="vYt_MYBXlAKT3WQaYmDF-67">
          <mxGeometry x="50" y="88" width="100" height="40" as="geometry" />
        </mxCell>
        <mxCell id="vYt_MYBXlAKT3WQaYmDF-73" value="" style="swimlane;startSize=0;" vertex="1" parent="1">
          <mxGeometry x="400" y="330" width="220" height="170" as="geometry">
            <mxRectangle x="400" y="330" width="50" height="44" as="alternateBounds" />
          </mxGeometry>
        </mxCell>
        <mxCell id="vYt_MYBXlAKT3WQaYmDF-74" value="Collaterla_T24_MIG_coll_Join" style="text;html=1;align=center;verticalAlign=middle;resizable=0;points=[];autosize=1;strokeColor=none;fillColor=none;" vertex="1" parent="vYt_MYBXlAKT3WQaYmDF-73">
          <mxGeometry x="20" y="10" width="180" height="30" as="geometry" />
        </mxCell>
        <mxCell id="vYt_MYBXlAKT3WQaYmDF-91" value="CR_DIM_CUSTOMER AS C" style="text;html=1;align=center;verticalAlign=middle;resizable=0;points=[];autosize=1;strokeColor=none;fillColor=none;" vertex="1" parent="vYt_MYBXlAKT3WQaYmDF-73">
          <mxGeometry x="20" y="40" width="180" height="30" as="geometry" />
        </mxCell>
        <mxCell id="vYt_MYBXlAKT3WQaYmDF-92" value="CR_T24_MIGRATION t24&lt;div&gt;&lt;br&gt;&lt;/div&gt;" style="text;html=1;align=center;verticalAlign=middle;resizable=0;points=[];autosize=1;strokeColor=none;fillColor=none;" vertex="1" parent="vYt_MYBXlAKT3WQaYmDF-73">
          <mxGeometry x="25" y="70" width="160" height="40" as="geometry" />
        </mxCell>
        <mxCell id="vYt_MYBXlAKT3WQaYmDF-93" value="C.CIF = t24.Liability_Number" style="text;html=1;align=center;verticalAlign=middle;resizable=0;points=[];autosize=1;strokeColor=none;fillColor=none;" vertex="1" parent="vYt_MYBXlAKT3WQaYmDF-73">
          <mxGeometry x="15" y="130" width="180" height="30" as="geometry" />
        </mxCell>
        <mxCell id="vYt_MYBXlAKT3WQaYmDF-94" value="&lt;b&gt;Join Condition&lt;/b&gt;&lt;div&gt;&lt;br&gt;&lt;/div&gt;" style="text;html=1;align=center;verticalAlign=middle;resizable=0;points=[];autosize=1;strokeColor=none;fillColor=none;" vertex="1" parent="vYt_MYBXlAKT3WQaYmDF-73">
          <mxGeometry x="35" y="105" width="110" height="40" as="geometry" />
        </mxCell>
        <mxCell id="vYt_MYBXlAKT3WQaYmDF-77" style="edgeStyle=orthogonalEdgeStyle;rounded=0;orthogonalLoop=1;jettySize=auto;html=1;exitX=1;exitY=0.5;exitDx=0;exitDy=0;entryX=0.02;entryY=0.339;entryDx=0;entryDy=0;entryPerimeter=0;fillColor=#FFFF66;strokeColor=#FFE599;strokeWidth=2;" edge="1" parent="1" source="vYt_MYBXlAKT3WQaYmDF-33" target="vYt_MYBXlAKT3WQaYmDF-73">
          <mxGeometry relative="1" as="geometry" />
        </mxCell>
        <mxCell id="vYt_MYBXlAKT3WQaYmDF-80" style="edgeStyle=orthogonalEdgeStyle;rounded=0;orthogonalLoop=1;jettySize=auto;html=1;exitX=1;exitY=0.5;exitDx=0;exitDy=0;entryX=0;entryY=0.5;entryDx=0;entryDy=0;strokeColor=#33FF33;strokeWidth=2;" edge="1" parent="1" source="vYt_MYBXlAKT3WQaYmDF-29" target="vYt_MYBXlAKT3WQaYmDF-73">
          <mxGeometry relative="1" as="geometry">
            <mxPoint x="320" y="360" as="targetPoint" />
          </mxGeometry>
        </mxCell>
        <mxCell id="vYt_MYBXlAKT3WQaYmDF-81" style="edgeStyle=orthogonalEdgeStyle;rounded=0;orthogonalLoop=1;jettySize=auto;html=1;exitX=1;exitY=0.5;exitDx=0;exitDy=0;entryX=0.005;entryY=0.392;entryDx=0;entryDy=0;entryPerimeter=0;strokeColor=#B5739D;strokeWidth=2;" edge="1" parent="1" source="vYt_MYBXlAKT3WQaYmDF-67" target="vYt_MYBXlAKT3WQaYmDF-43">
          <mxGeometry relative="1" as="geometry" />
        </mxCell>
        <mxCell id="vYt_MYBXlAKT3WQaYmDF-83" style="edgeStyle=orthogonalEdgeStyle;rounded=0;orthogonalLoop=1;jettySize=auto;html=1;exitX=1;exitY=0.5;exitDx=0;exitDy=0;entryX=-0.005;entryY=0.42;entryDx=0;entryDy=0;entryPerimeter=0;strokeWidth=2;" edge="1" parent="1" source="vYt_MYBXlAKT3WQaYmDF-73" target="vYt_MYBXlAKT3WQaYmDF-43">
          <mxGeometry relative="1" as="geometry" />
        </mxCell>
        <mxCell id="vYt_MYBXlAKT3WQaYmDF-85" value="" style="swimlane;startSize=0;" vertex="1" parent="1">
          <mxGeometry x="383" y="-119" width="310" height="70" as="geometry" />
        </mxCell>
        <mxCell id="vYt_MYBXlAKT3WQaYmDF-84" value="&lt;font style=&quot;font-size: 18px;&quot;&gt;ETL Data Lineage&lt;/font&gt;" style="text;html=1;align=center;verticalAlign=middle;resizable=0;points=[];autosize=1;strokeColor=none;fillColor=none;fontStyle=1" vertex="1" parent="vYt_MYBXlAKT3WQaYmDF-85">
          <mxGeometry x="70" y="12" width="170" height="40" as="geometry" />
        </mxCell>
        <mxCell id="vYt_MYBXlAKT3WQaYmDF-96" style="edgeStyle=orthogonalEdgeStyle;rounded=0;orthogonalLoop=1;jettySize=auto;html=1;exitX=1;exitY=0.5;exitDx=0;exitDy=0;entryX=0;entryY=0.5;entryDx=0;entryDy=0;strokeColor=#FF0000;strokeWidth=2;" edge="1" parent="1" source="vYt_MYBXlAKT3WQaYmDF-19" target="vYt_MYBXlAKT3WQaYmDF-67">
          <mxGeometry relative="1" as="geometry" />
        </mxCell>
        <mxCell id="vYt_MYBXlAKT3WQaYmDF-98" style="edgeStyle=orthogonalEdgeStyle;rounded=0;orthogonalLoop=1;jettySize=auto;html=1;exitX=1;exitY=0.5;exitDx=0;exitDy=0;entryX=0;entryY=0.25;entryDx=0;entryDy=0;strokeWidth=2;strokeColor=#3333FF;" edge="1" parent="1" source="vYt_MYBXlAKT3WQaYmDF-12" target="vYt_MYBXlAKT3WQaYmDF-67">
          <mxGeometry relative="1" as="geometry">
            <Array as="points">
              <mxPoint x="-120" y="205" />
              <mxPoint x="-120" y="40" />
              <mxPoint x="400" y="40" />
            </Array>
          </mxGeometry>
        </mxCell>
        <mxCell id="vYt_MYBXlAKT3WQaYmDF-99" value="" style="shape=table;startSize=0;container=1;collapsible=0;childLayout=tableLayout;" vertex="1" parent="1">
          <mxGeometry x="-696.5" y="713" width="513" height="189" as="geometry" />
        </mxCell>
        <mxCell id="vYt_MYBXlAKT3WQaYmDF-100" value="" style="shape=tableRow;horizontal=0;startSize=0;swimlaneHead=0;swimlaneBody=0;strokeColor=inherit;top=0;left=0;bottom=0;right=0;collapsible=0;dropTarget=0;fillColor=none;points=[[0,0.5],[1,0.5]];portConstraint=eastwest;fontStyle=1" vertex="1" parent="vYt_MYBXlAKT3WQaYmDF-99">
          <mxGeometry width="513" height="38" as="geometry" />
        </mxCell>
        <mxCell id="vYt_MYBXlAKT3WQaYmDF-101" value="Liability Number" style="shape=partialRectangle;html=1;whiteSpace=wrap;connectable=0;strokeColor=inherit;overflow=hidden;fillColor=none;top=0;left=0;bottom=0;right=0;pointerEvents=1;fontStyle=1" vertex="1" parent="vYt_MYBXlAKT3WQaYmDF-100">
          <mxGeometry width="129" height="38" as="geometry">
            <mxRectangle width="129" height="38" as="alternateBounds" />
          </mxGeometry>
        </mxCell>
        <mxCell id="vYt_MYBXlAKT3WQaYmDF-102" value="Active Flag" style="shape=partialRectangle;html=1;whiteSpace=wrap;connectable=0;strokeColor=inherit;overflow=hidden;fillColor=none;top=0;left=0;bottom=0;right=0;pointerEvents=1;fontStyle=1" vertex="1" parent="vYt_MYBXlAKT3WQaYmDF-100">
          <mxGeometry x="129" width="128" height="38" as="geometry">
            <mxRectangle width="128" height="38" as="alternateBounds" />
          </mxGeometry>
        </mxCell>
        <mxCell id="vYt_MYBXlAKT3WQaYmDF-103" value="CR Active Flag" style="shape=partialRectangle;html=1;whiteSpace=wrap;connectable=0;strokeColor=inherit;overflow=hidden;fillColor=none;top=0;left=0;bottom=0;right=0;pointerEvents=1;fontStyle=1" vertex="1" parent="vYt_MYBXlAKT3WQaYmDF-100">
          <mxGeometry x="257" width="127" height="38" as="geometry">
            <mxRectangle width="127" height="38" as="alternateBounds" />
          </mxGeometry>
        </mxCell>
        <mxCell id="vYt_MYBXlAKT3WQaYmDF-104" value="Liability Number Source" style="shape=partialRectangle;html=1;whiteSpace=wrap;connectable=0;strokeColor=inherit;overflow=hidden;fillColor=none;top=0;left=0;bottom=0;right=0;pointerEvents=1;fontStyle=1" vertex="1" parent="vYt_MYBXlAKT3WQaYmDF-100">
          <mxGeometry x="384" width="129" height="38" as="geometry">
            <mxRectangle width="129" height="38" as="alternateBounds" />
          </mxGeometry>
        </mxCell>
        <mxCell id="vYt_MYBXlAKT3WQaYmDF-105" value="" style="shape=tableRow;horizontal=0;startSize=0;swimlaneHead=0;swimlaneBody=0;strokeColor=inherit;top=0;left=0;bottom=0;right=0;collapsible=0;dropTarget=0;fillColor=none;points=[[0,0.5],[1,0.5]];portConstraint=eastwest;" vertex="1" parent="vYt_MYBXlAKT3WQaYmDF-99">
          <mxGeometry y="38" width="513" height="38" as="geometry" />
        </mxCell>
        <mxCell id="vYt_MYBXlAKT3WQaYmDF-106" value="10001" style="shape=partialRectangle;html=1;whiteSpace=wrap;connectable=0;strokeColor=inherit;overflow=hidden;fillColor=none;top=0;left=0;bottom=0;right=0;pointerEvents=1;" vertex="1" parent="vYt_MYBXlAKT3WQaYmDF-105">
          <mxGeometry width="129" height="38" as="geometry">
            <mxRectangle width="129" height="38" as="alternateBounds" />
          </mxGeometry>
        </mxCell>
        <mxCell id="vYt_MYBXlAKT3WQaYmDF-107" value="1" style="shape=partialRectangle;html=1;whiteSpace=wrap;connectable=0;strokeColor=inherit;overflow=hidden;fillColor=none;top=0;left=0;bottom=0;right=0;pointerEvents=1;" vertex="1" parent="vYt_MYBXlAKT3WQaYmDF-105">
          <mxGeometry x="129" width="128" height="38" as="geometry">
            <mxRectangle width="128" height="38" as="alternateBounds" />
          </mxGeometry>
        </mxCell>
        <mxCell id="vYt_MYBXlAKT3WQaYmDF-108" value="1" style="shape=partialRectangle;html=1;whiteSpace=wrap;connectable=0;strokeColor=inherit;overflow=hidden;fillColor=none;top=0;left=0;bottom=0;right=0;pointerEvents=1;" vertex="1" parent="vYt_MYBXlAKT3WQaYmDF-105">
          <mxGeometry x="257" width="127" height="38" as="geometry">
            <mxRectangle width="127" height="38" as="alternateBounds" />
          </mxGeometry>
        </mxCell>
        <mxCell id="vYt_MYBXlAKT3WQaYmDF-109" value="CRM" style="shape=partialRectangle;html=1;whiteSpace=wrap;connectable=0;strokeColor=inherit;overflow=hidden;fillColor=none;top=0;left=0;bottom=0;right=0;pointerEvents=1;" vertex="1" parent="vYt_MYBXlAKT3WQaYmDF-105">
          <mxGeometry x="384" width="129" height="38" as="geometry">
            <mxRectangle width="129" height="38" as="alternateBounds" />
          </mxGeometry>
        </mxCell>
        <mxCell id="vYt_MYBXlAKT3WQaYmDF-110" value="" style="shape=tableRow;horizontal=0;startSize=0;swimlaneHead=0;swimlaneBody=0;strokeColor=inherit;top=0;left=0;bottom=0;right=0;collapsible=0;dropTarget=0;fillColor=none;points=[[0,0.5],[1,0.5]];portConstraint=eastwest;" vertex="1" parent="vYt_MYBXlAKT3WQaYmDF-99">
          <mxGeometry y="76" width="513" height="37" as="geometry" />
        </mxCell>
        <mxCell id="vYt_MYBXlAKT3WQaYmDF-111" value="10002&lt;div&gt;&lt;br&gt;&lt;/div&gt;" style="shape=partialRectangle;html=1;whiteSpace=wrap;connectable=0;strokeColor=inherit;overflow=hidden;fillColor=none;top=0;left=0;bottom=0;right=0;pointerEvents=1;" vertex="1" parent="vYt_MYBXlAKT3WQaYmDF-110">
          <mxGeometry width="129" height="37" as="geometry">
            <mxRectangle width="129" height="37" as="alternateBounds" />
          </mxGeometry>
        </mxCell>
        <mxCell id="vYt_MYBXlAKT3WQaYmDF-112" value="1" style="shape=partialRectangle;html=1;whiteSpace=wrap;connectable=0;strokeColor=inherit;overflow=hidden;fillColor=none;top=0;left=0;bottom=0;right=0;pointerEvents=1;" vertex="1" parent="vYt_MYBXlAKT3WQaYmDF-110">
          <mxGeometry x="129" width="128" height="37" as="geometry">
            <mxRectangle width="128" height="37" as="alternateBounds" />
          </mxGeometry>
        </mxCell>
        <mxCell id="vYt_MYBXlAKT3WQaYmDF-113" value="0" style="shape=partialRectangle;html=1;whiteSpace=wrap;connectable=0;strokeColor=inherit;overflow=hidden;fillColor=none;top=0;left=0;bottom=0;right=0;pointerEvents=1;" vertex="1" parent="vYt_MYBXlAKT3WQaYmDF-110">
          <mxGeometry x="257" width="127" height="37" as="geometry">
            <mxRectangle width="127" height="37" as="alternateBounds" />
          </mxGeometry>
        </mxCell>
        <mxCell id="vYt_MYBXlAKT3WQaYmDF-114" value="T24" style="shape=partialRectangle;html=1;whiteSpace=wrap;connectable=0;strokeColor=inherit;overflow=hidden;fillColor=none;top=0;left=0;bottom=0;right=0;pointerEvents=1;" vertex="1" parent="vYt_MYBXlAKT3WQaYmDF-110">
          <mxGeometry x="384" width="129" height="37" as="geometry">
            <mxRectangle width="129" height="37" as="alternateBounds" />
          </mxGeometry>
        </mxCell>
        <mxCell id="vYt_MYBXlAKT3WQaYmDF-115" value="" style="shape=tableRow;horizontal=0;startSize=0;swimlaneHead=0;swimlaneBody=0;strokeColor=inherit;top=0;left=0;bottom=0;right=0;collapsible=0;dropTarget=0;fillColor=none;points=[[0,0.5],[1,0.5]];portConstraint=eastwest;" vertex="1" parent="vYt_MYBXlAKT3WQaYmDF-99">
          <mxGeometry y="113" width="513" height="38" as="geometry" />
        </mxCell>
        <mxCell id="vYt_MYBXlAKT3WQaYmDF-116" value="10003" style="shape=partialRectangle;html=1;whiteSpace=wrap;connectable=0;strokeColor=inherit;overflow=hidden;fillColor=none;top=0;left=0;bottom=0;right=0;pointerEvents=1;" vertex="1" parent="vYt_MYBXlAKT3WQaYmDF-115">
          <mxGeometry width="129" height="38" as="geometry">
            <mxRectangle width="129" height="38" as="alternateBounds" />
          </mxGeometry>
        </mxCell>
        <mxCell id="vYt_MYBXlAKT3WQaYmDF-117" value="0" style="shape=partialRectangle;html=1;whiteSpace=wrap;connectable=0;strokeColor=inherit;overflow=hidden;fillColor=none;top=0;left=0;bottom=0;right=0;pointerEvents=1;" vertex="1" parent="vYt_MYBXlAKT3WQaYmDF-115">
          <mxGeometry x="129" width="128" height="38" as="geometry">
            <mxRectangle width="128" height="38" as="alternateBounds" />
          </mxGeometry>
        </mxCell>
        <mxCell id="vYt_MYBXlAKT3WQaYmDF-118" value="0" style="shape=partialRectangle;html=1;whiteSpace=wrap;connectable=0;strokeColor=inherit;overflow=hidden;fillColor=none;top=0;left=0;bottom=0;right=0;pointerEvents=1;" vertex="1" parent="vYt_MYBXlAKT3WQaYmDF-115">
          <mxGeometry x="257" width="127" height="38" as="geometry">
            <mxRectangle width="127" height="38" as="alternateBounds" />
          </mxGeometry>
        </mxCell>
        <mxCell id="vYt_MYBXlAKT3WQaYmDF-119" value="T24" style="shape=partialRectangle;html=1;whiteSpace=wrap;connectable=0;strokeColor=inherit;overflow=hidden;fillColor=none;top=0;left=0;bottom=0;right=0;pointerEvents=1;" vertex="1" parent="vYt_MYBXlAKT3WQaYmDF-115">
          <mxGeometry x="384" width="129" height="38" as="geometry">
            <mxRectangle width="129" height="38" as="alternateBounds" />
          </mxGeometry>
        </mxCell>
        <mxCell id="vYt_MYBXlAKT3WQaYmDF-120" value="" style="shape=tableRow;horizontal=0;startSize=0;swimlaneHead=0;swimlaneBody=0;strokeColor=inherit;top=0;left=0;bottom=0;right=0;collapsible=0;dropTarget=0;fillColor=none;points=[[0,0.5],[1,0.5]];portConstraint=eastwest;" vertex="1" parent="vYt_MYBXlAKT3WQaYmDF-99">
          <mxGeometry y="151" width="513" height="38" as="geometry" />
        </mxCell>
        <mxCell id="vYt_MYBXlAKT3WQaYmDF-121" value="10004" style="shape=partialRectangle;html=1;whiteSpace=wrap;connectable=0;strokeColor=inherit;overflow=hidden;fillColor=none;top=0;left=0;bottom=0;right=0;pointerEvents=1;" vertex="1" parent="vYt_MYBXlAKT3WQaYmDF-120">
          <mxGeometry width="129" height="38" as="geometry">
            <mxRectangle width="129" height="38" as="alternateBounds" />
          </mxGeometry>
        </mxCell>
        <mxCell id="vYt_MYBXlAKT3WQaYmDF-122" value="1" style="shape=partialRectangle;html=1;whiteSpace=wrap;connectable=0;strokeColor=inherit;overflow=hidden;fillColor=none;top=0;left=0;bottom=0;right=0;pointerEvents=1;" vertex="1" parent="vYt_MYBXlAKT3WQaYmDF-120">
          <mxGeometry x="129" width="128" height="38" as="geometry">
            <mxRectangle width="128" height="38" as="alternateBounds" />
          </mxGeometry>
        </mxCell>
        <mxCell id="vYt_MYBXlAKT3WQaYmDF-123" value="1" style="shape=partialRectangle;html=1;whiteSpace=wrap;connectable=0;strokeColor=inherit;overflow=hidden;fillColor=none;top=0;left=0;bottom=0;right=0;pointerEvents=1;" vertex="1" parent="vYt_MYBXlAKT3WQaYmDF-120">
          <mxGeometry x="257" width="127" height="38" as="geometry">
            <mxRectangle width="127" height="38" as="alternateBounds" />
          </mxGeometry>
        </mxCell>
        <mxCell id="vYt_MYBXlAKT3WQaYmDF-124" value="CRM" style="shape=partialRectangle;html=1;whiteSpace=wrap;connectable=0;strokeColor=inherit;overflow=hidden;fillColor=none;top=0;left=0;bottom=0;right=0;pointerEvents=1;" vertex="1" parent="vYt_MYBXlAKT3WQaYmDF-120">
          <mxGeometry x="384" width="129" height="38" as="geometry">
            <mxRectangle width="129" height="38" as="alternateBounds" />
          </mxGeometry>
        </mxCell>
        <mxCell id="vYt_MYBXlAKT3WQaYmDF-131" value="CR_DIM_CUSTOMER" style="text;html=1;align=center;verticalAlign=middle;resizable=0;points=[];autosize=1;strokeColor=none;fillColor=none;fontStyle=1" vertex="1" parent="1">
          <mxGeometry x="-696.5" y="648" width="139" height="26" as="geometry" />
        </mxCell>
        <mxCell id="vYt_MYBXlAKT3WQaYmDF-132" value="" style="shape=table;startSize=0;container=1;collapsible=0;childLayout=tableLayout;" vertex="1" parent="1">
          <mxGeometry x="-32" y="742" width="522" height="125" as="geometry" />
        </mxCell>
        <mxCell id="vYt_MYBXlAKT3WQaYmDF-133" value="" style="shape=tableRow;horizontal=0;startSize=0;swimlaneHead=0;swimlaneBody=0;strokeColor=inherit;top=0;left=0;bottom=0;right=0;collapsible=0;dropTarget=0;fillColor=none;points=[[0,0.5],[1,0.5]];portConstraint=eastwest;fontStyle=1" vertex="1" parent="vYt_MYBXlAKT3WQaYmDF-132">
          <mxGeometry width="522" height="41" as="geometry" />
        </mxCell>
        <mxCell id="vYt_MYBXlAKT3WQaYmDF-134" value="Liability Number" style="shape=partialRectangle;html=1;whiteSpace=wrap;connectable=0;strokeColor=inherit;overflow=hidden;fillColor=none;top=0;left=0;bottom=0;right=0;pointerEvents=1;fontStyle=1" vertex="1" parent="vYt_MYBXlAKT3WQaYmDF-133">
          <mxGeometry width="174" height="41" as="geometry">
            <mxRectangle width="174" height="41" as="alternateBounds" />
          </mxGeometry>
        </mxCell>
        <mxCell id="vYt_MYBXlAKT3WQaYmDF-135" value="Flag" style="shape=partialRectangle;html=1;whiteSpace=wrap;connectable=0;strokeColor=inherit;overflow=hidden;fillColor=none;top=0;left=0;bottom=0;right=0;pointerEvents=1;fontStyle=1" vertex="1" parent="vYt_MYBXlAKT3WQaYmDF-133">
          <mxGeometry x="174" width="174" height="41" as="geometry">
            <mxRectangle width="174" height="41" as="alternateBounds" />
          </mxGeometry>
        </mxCell>
        <mxCell id="vYt_MYBXlAKT3WQaYmDF-136" value="Source System" style="shape=partialRectangle;html=1;whiteSpace=wrap;connectable=0;strokeColor=inherit;overflow=hidden;fillColor=none;top=0;left=0;bottom=0;right=0;pointerEvents=1;fontStyle=1" vertex="1" parent="vYt_MYBXlAKT3WQaYmDF-133">
          <mxGeometry x="348" width="174" height="41" as="geometry">
            <mxRectangle width="174" height="41" as="alternateBounds" />
          </mxGeometry>
        </mxCell>
        <mxCell id="vYt_MYBXlAKT3WQaYmDF-137" value="" style="shape=tableRow;horizontal=0;startSize=0;swimlaneHead=0;swimlaneBody=0;strokeColor=inherit;top=0;left=0;bottom=0;right=0;collapsible=0;dropTarget=0;fillColor=none;points=[[0,0.5],[1,0.5]];portConstraint=eastwest;" vertex="1" parent="vYt_MYBXlAKT3WQaYmDF-132">
          <mxGeometry y="41" width="522" height="43" as="geometry" />
        </mxCell>
        <mxCell id="vYt_MYBXlAKT3WQaYmDF-138" value="10001" style="shape=partialRectangle;html=1;whiteSpace=wrap;connectable=0;strokeColor=inherit;overflow=hidden;fillColor=none;top=0;left=0;bottom=0;right=0;pointerEvents=1;" vertex="1" parent="vYt_MYBXlAKT3WQaYmDF-137">
          <mxGeometry width="174" height="43" as="geometry">
            <mxRectangle width="174" height="43" as="alternateBounds" />
          </mxGeometry>
        </mxCell>
        <mxCell id="vYt_MYBXlAKT3WQaYmDF-139" value="0" style="shape=partialRectangle;html=1;whiteSpace=wrap;connectable=0;strokeColor=inherit;overflow=hidden;fillColor=none;top=0;left=0;bottom=0;right=0;pointerEvents=1;" vertex="1" parent="vYt_MYBXlAKT3WQaYmDF-137">
          <mxGeometry x="174" width="174" height="43" as="geometry">
            <mxRectangle width="174" height="43" as="alternateBounds" />
          </mxGeometry>
        </mxCell>
        <mxCell id="vYt_MYBXlAKT3WQaYmDF-140" value="CRM" style="shape=partialRectangle;html=1;whiteSpace=wrap;connectable=0;strokeColor=inherit;overflow=hidden;fillColor=none;top=0;left=0;bottom=0;right=0;pointerEvents=1;" vertex="1" parent="vYt_MYBXlAKT3WQaYmDF-137">
          <mxGeometry x="348" width="174" height="43" as="geometry">
            <mxRectangle width="174" height="43" as="alternateBounds" />
          </mxGeometry>
        </mxCell>
        <mxCell id="vYt_MYBXlAKT3WQaYmDF-141" value="" style="shape=tableRow;horizontal=0;startSize=0;swimlaneHead=0;swimlaneBody=0;strokeColor=inherit;top=0;left=0;bottom=0;right=0;collapsible=0;dropTarget=0;fillColor=none;points=[[0,0.5],[1,0.5]];portConstraint=eastwest;" vertex="1" parent="vYt_MYBXlAKT3WQaYmDF-132">
          <mxGeometry y="84" width="522" height="41" as="geometry" />
        </mxCell>
        <mxCell id="vYt_MYBXlAKT3WQaYmDF-142" value="10004" style="shape=partialRectangle;html=1;whiteSpace=wrap;connectable=0;strokeColor=inherit;overflow=hidden;fillColor=none;top=0;left=0;bottom=0;right=0;pointerEvents=1;" vertex="1" parent="vYt_MYBXlAKT3WQaYmDF-141">
          <mxGeometry width="174" height="41" as="geometry">
            <mxRectangle width="174" height="41" as="alternateBounds" />
          </mxGeometry>
        </mxCell>
        <mxCell id="vYt_MYBXlAKT3WQaYmDF-143" value="0" style="shape=partialRectangle;html=1;whiteSpace=wrap;connectable=0;strokeColor=inherit;overflow=hidden;fillColor=none;top=0;left=0;bottom=0;right=0;pointerEvents=1;" vertex="1" parent="vYt_MYBXlAKT3WQaYmDF-141">
          <mxGeometry x="174" width="174" height="41" as="geometry">
            <mxRectangle width="174" height="41" as="alternateBounds" />
          </mxGeometry>
        </mxCell>
        <mxCell id="vYt_MYBXlAKT3WQaYmDF-144" value="T24" style="shape=partialRectangle;html=1;whiteSpace=wrap;connectable=0;strokeColor=inherit;overflow=hidden;fillColor=none;top=0;left=0;bottom=0;right=0;pointerEvents=1;" vertex="1" parent="vYt_MYBXlAKT3WQaYmDF-141">
          <mxGeometry x="348" width="174" height="41" as="geometry">
            <mxRectangle width="174" height="41" as="alternateBounds" />
          </mxGeometry>
        </mxCell>
        <mxCell id="vYt_MYBXlAKT3WQaYmDF-145" style="edgeStyle=orthogonalEdgeStyle;rounded=0;orthogonalLoop=1;jettySize=auto;html=1;" edge="1" parent="1" source="vYt_MYBXlAKT3WQaYmDF-110">
          <mxGeometry relative="1" as="geometry">
            <mxPoint x="-42.3333740234375" y="807.5" as="targetPoint" />
          </mxGeometry>
        </mxCell>
        <mxCell id="vYt_MYBXlAKT3WQaYmDF-146" value="CR_T24_MIGRATION" style="text;html=1;align=center;verticalAlign=middle;resizable=0;points=[];autosize=1;strokeColor=none;fillColor=none;fontStyle=1" vertex="1" parent="1">
          <mxGeometry y="674" width="136" height="26" as="geometry" />
        </mxCell>
        <mxCell id="vYt_MYBXlAKT3WQaYmDF-147" value="" style="shape=table;startSize=0;container=1;collapsible=0;childLayout=tableLayout;fontStyle=1" vertex="1" parent="1">
          <mxGeometry x="599" y="746" width="532" height="117" as="geometry" />
        </mxCell>
        <mxCell id="vYt_MYBXlAKT3WQaYmDF-148" value="" style="shape=tableRow;horizontal=0;startSize=0;swimlaneHead=0;swimlaneBody=0;strokeColor=inherit;top=0;left=0;bottom=0;right=0;collapsible=0;dropTarget=0;fillColor=none;points=[[0,0.5],[1,0.5]];portConstraint=eastwest;fontStyle=1" vertex="1" parent="vYt_MYBXlAKT3WQaYmDF-147">
          <mxGeometry width="532" height="39" as="geometry" />
        </mxCell>
        <mxCell id="vYt_MYBXlAKT3WQaYmDF-149" value="&lt;b&gt;Module ID&lt;/b&gt;" style="shape=partialRectangle;html=1;whiteSpace=wrap;connectable=0;strokeColor=inherit;overflow=hidden;fillColor=none;top=0;left=0;bottom=0;right=0;pointerEvents=1;" vertex="1" parent="vYt_MYBXlAKT3WQaYmDF-148">
          <mxGeometry width="106" height="39" as="geometry">
            <mxRectangle width="106" height="39" as="alternateBounds" />
          </mxGeometry>
        </mxCell>
        <mxCell id="vYt_MYBXlAKT3WQaYmDF-150" value="&lt;b&gt;Workflow ID&lt;/b&gt;" style="shape=partialRectangle;html=1;whiteSpace=wrap;connectable=0;strokeColor=inherit;overflow=hidden;fillColor=none;top=0;left=0;bottom=0;right=0;pointerEvents=1;" vertex="1" parent="vYt_MYBXlAKT3WQaYmDF-148">
          <mxGeometry x="106" width="106" height="39" as="geometry">
            <mxRectangle width="106" height="39" as="alternateBounds" />
          </mxGeometry>
        </mxCell>
        <mxCell id="vYt_MYBXlAKT3WQaYmDF-151" value="Customer Skey" style="shape=partialRectangle;html=1;whiteSpace=wrap;connectable=0;strokeColor=inherit;overflow=hidden;fillColor=none;top=0;left=0;bottom=0;right=0;pointerEvents=1;fontStyle=1" vertex="1" parent="vYt_MYBXlAKT3WQaYmDF-148">
          <mxGeometry x="212" width="108" height="39" as="geometry">
            <mxRectangle width="108" height="39" as="alternateBounds" />
          </mxGeometry>
        </mxCell>
        <mxCell id="vYt_MYBXlAKT3WQaYmDF-152" value="Liability Number" style="shape=partialRectangle;html=1;whiteSpace=wrap;connectable=0;strokeColor=inherit;overflow=hidden;fillColor=none;top=0;left=0;bottom=0;right=0;pointerEvents=1;fontStyle=1" vertex="1" parent="vYt_MYBXlAKT3WQaYmDF-148">
          <mxGeometry x="320" width="106" height="39" as="geometry">
            <mxRectangle width="106" height="39" as="alternateBounds" />
          </mxGeometry>
        </mxCell>
        <mxCell id="vYt_MYBXlAKT3WQaYmDF-153" value="Batch ID" style="shape=partialRectangle;html=1;whiteSpace=wrap;connectable=0;strokeColor=inherit;overflow=hidden;fillColor=none;top=0;left=0;bottom=0;right=0;pointerEvents=1;fontStyle=1" vertex="1" parent="vYt_MYBXlAKT3WQaYmDF-148">
          <mxGeometry x="426" width="106" height="39" as="geometry">
            <mxRectangle width="106" height="39" as="alternateBounds" />
          </mxGeometry>
        </mxCell>
        <mxCell id="vYt_MYBXlAKT3WQaYmDF-154" value="" style="shape=tableRow;horizontal=0;startSize=0;swimlaneHead=0;swimlaneBody=0;strokeColor=inherit;top=0;left=0;bottom=0;right=0;collapsible=0;dropTarget=0;fillColor=none;points=[[0,0.5],[1,0.5]];portConstraint=eastwest;" vertex="1" parent="vYt_MYBXlAKT3WQaYmDF-147">
          <mxGeometry y="39" width="532" height="39" as="geometry" />
        </mxCell>
        <mxCell id="vYt_MYBXlAKT3WQaYmDF-155" value="6" style="shape=partialRectangle;html=1;whiteSpace=wrap;connectable=0;strokeColor=inherit;overflow=hidden;fillColor=none;top=0;left=0;bottom=0;right=0;pointerEvents=1;" vertex="1" parent="vYt_MYBXlAKT3WQaYmDF-154">
          <mxGeometry width="106" height="39" as="geometry">
            <mxRectangle width="106" height="39" as="alternateBounds" />
          </mxGeometry>
        </mxCell>
        <mxCell id="vYt_MYBXlAKT3WQaYmDF-156" value="101" style="shape=partialRectangle;html=1;whiteSpace=wrap;connectable=0;strokeColor=inherit;overflow=hidden;fillColor=none;top=0;left=0;bottom=0;right=0;pointerEvents=1;" vertex="1" parent="vYt_MYBXlAKT3WQaYmDF-154">
          <mxGeometry x="106" width="106" height="39" as="geometry">
            <mxRectangle width="106" height="39" as="alternateBounds" />
          </mxGeometry>
        </mxCell>
        <mxCell id="vYt_MYBXlAKT3WQaYmDF-157" value="5001" style="shape=partialRectangle;html=1;whiteSpace=wrap;connectable=0;strokeColor=inherit;overflow=hidden;fillColor=none;top=0;left=0;bottom=0;right=0;pointerEvents=1;" vertex="1" parent="vYt_MYBXlAKT3WQaYmDF-154">
          <mxGeometry x="212" width="108" height="39" as="geometry">
            <mxRectangle width="108" height="39" as="alternateBounds" />
          </mxGeometry>
        </mxCell>
        <mxCell id="vYt_MYBXlAKT3WQaYmDF-158" value="10001" style="shape=partialRectangle;html=1;whiteSpace=wrap;connectable=0;strokeColor=inherit;overflow=hidden;fillColor=none;top=0;left=0;bottom=0;right=0;pointerEvents=1;" vertex="1" parent="vYt_MYBXlAKT3WQaYmDF-154">
          <mxGeometry x="320" width="106" height="39" as="geometry">
            <mxRectangle width="106" height="39" as="alternateBounds" />
          </mxGeometry>
        </mxCell>
        <mxCell id="vYt_MYBXlAKT3WQaYmDF-159" value="123" style="shape=partialRectangle;html=1;whiteSpace=wrap;connectable=0;strokeColor=inherit;overflow=hidden;fillColor=none;top=0;left=0;bottom=0;right=0;pointerEvents=1;" vertex="1" parent="vYt_MYBXlAKT3WQaYmDF-154">
          <mxGeometry x="426" width="106" height="39" as="geometry">
            <mxRectangle width="106" height="39" as="alternateBounds" />
          </mxGeometry>
        </mxCell>
        <mxCell id="vYt_MYBXlAKT3WQaYmDF-160" value="" style="shape=tableRow;horizontal=0;startSize=0;swimlaneHead=0;swimlaneBody=0;strokeColor=inherit;top=0;left=0;bottom=0;right=0;collapsible=0;dropTarget=0;fillColor=none;points=[[0,0.5],[1,0.5]];portConstraint=eastwest;" vertex="1" parent="vYt_MYBXlAKT3WQaYmDF-147">
          <mxGeometry y="78" width="532" height="39" as="geometry" />
        </mxCell>
        <mxCell id="vYt_MYBXlAKT3WQaYmDF-161" value="6" style="shape=partialRectangle;html=1;whiteSpace=wrap;connectable=0;strokeColor=inherit;overflow=hidden;fillColor=none;top=0;left=0;bottom=0;right=0;pointerEvents=1;" vertex="1" parent="vYt_MYBXlAKT3WQaYmDF-160">
          <mxGeometry width="106" height="39" as="geometry">
            <mxRectangle width="106" height="39" as="alternateBounds" />
          </mxGeometry>
        </mxCell>
        <mxCell id="vYt_MYBXlAKT3WQaYmDF-162" value="101" style="shape=partialRectangle;html=1;whiteSpace=wrap;connectable=0;strokeColor=inherit;overflow=hidden;fillColor=none;top=0;left=0;bottom=0;right=0;pointerEvents=1;" vertex="1" parent="vYt_MYBXlAKT3WQaYmDF-160">
          <mxGeometry x="106" width="106" height="39" as="geometry">
            <mxRectangle width="106" height="39" as="alternateBounds" />
          </mxGeometry>
        </mxCell>
        <mxCell id="vYt_MYBXlAKT3WQaYmDF-163" value="5002" style="shape=partialRectangle;html=1;whiteSpace=wrap;connectable=0;strokeColor=inherit;overflow=hidden;fillColor=none;top=0;left=0;bottom=0;right=0;pointerEvents=1;" vertex="1" parent="vYt_MYBXlAKT3WQaYmDF-160">
          <mxGeometry x="212" width="108" height="39" as="geometry">
            <mxRectangle width="108" height="39" as="alternateBounds" />
          </mxGeometry>
        </mxCell>
        <mxCell id="vYt_MYBXlAKT3WQaYmDF-164" value="10004" style="shape=partialRectangle;html=1;whiteSpace=wrap;connectable=0;strokeColor=inherit;overflow=hidden;fillColor=none;top=0;left=0;bottom=0;right=0;pointerEvents=1;" vertex="1" parent="vYt_MYBXlAKT3WQaYmDF-160">
          <mxGeometry x="320" width="106" height="39" as="geometry">
            <mxRectangle width="106" height="39" as="alternateBounds" />
          </mxGeometry>
        </mxCell>
        <mxCell id="vYt_MYBXlAKT3WQaYmDF-165" value="123" style="shape=partialRectangle;html=1;whiteSpace=wrap;connectable=0;strokeColor=inherit;overflow=hidden;fillColor=none;top=0;left=0;bottom=0;right=0;pointerEvents=1;" vertex="1" parent="vYt_MYBXlAKT3WQaYmDF-160">
          <mxGeometry x="426" width="106" height="39" as="geometry">
            <mxRectangle width="106" height="39" as="alternateBounds" />
          </mxGeometry>
        </mxCell>
        <mxCell id="vYt_MYBXlAKT3WQaYmDF-166" value="CR_STG_MODULE_STATUS_HISTORY" style="text;html=1;align=center;verticalAlign=middle;resizable=0;points=[];autosize=1;strokeColor=none;fillColor=none;fontStyle=1" vertex="1" parent="1">
          <mxGeometry x="618" y="682" width="237" height="26" as="geometry" />
        </mxCell>
        <mxCell id="vYt_MYBXlAKT3WQaYmDF-167" style="edgeStyle=orthogonalEdgeStyle;rounded=0;orthogonalLoop=1;jettySize=auto;html=1;exitX=1;exitY=0.5;exitDx=0;exitDy=0;entryX=0;entryY=0.5;entryDx=0;entryDy=0;" edge="1" parent="1" source="vYt_MYBXlAKT3WQaYmDF-137" target="vYt_MYBXlAKT3WQaYmDF-154">
          <mxGeometry relative="1" as="geometry" />
        </mxCell>
        <mxCell id="vYt_MYBXlAKT3WQaYmDF-168" value="" style="shape=table;startSize=0;container=1;collapsible=0;childLayout=tableLayout;fontStyle=1" vertex="1" parent="1">
          <mxGeometry x="1233" y="746" width="745" height="117" as="geometry" />
        </mxCell>
        <mxCell id="vYt_MYBXlAKT3WQaYmDF-169" value="" style="shape=tableRow;horizontal=0;startSize=0;swimlaneHead=0;swimlaneBody=0;strokeColor=inherit;top=0;left=0;bottom=0;right=0;collapsible=0;dropTarget=0;fillColor=none;points=[[0,0.5],[1,0.5]];portConstraint=eastwest;fontStyle=1" vertex="1" parent="vYt_MYBXlAKT3WQaYmDF-168">
          <mxGeometry width="745" height="39" as="geometry" />
        </mxCell>
        <mxCell id="vYt_MYBXlAKT3WQaYmDF-170" value="&lt;b&gt;Module ID&lt;/b&gt;" style="shape=partialRectangle;html=1;whiteSpace=wrap;connectable=0;strokeColor=inherit;overflow=hidden;fillColor=none;top=0;left=0;bottom=0;right=0;pointerEvents=1;" vertex="1" parent="vYt_MYBXlAKT3WQaYmDF-169">
          <mxGeometry width="106" height="39" as="geometry">
            <mxRectangle width="106" height="39" as="alternateBounds" />
          </mxGeometry>
        </mxCell>
        <mxCell id="vYt_MYBXlAKT3WQaYmDF-171" value="&lt;b&gt;Workflow ID&lt;/b&gt;" style="shape=partialRectangle;html=1;whiteSpace=wrap;connectable=0;strokeColor=inherit;overflow=hidden;fillColor=none;top=0;left=0;bottom=0;right=0;pointerEvents=1;" vertex="1" parent="vYt_MYBXlAKT3WQaYmDF-169">
          <mxGeometry x="106" width="106" height="39" as="geometry">
            <mxRectangle width="106" height="39" as="alternateBounds" />
          </mxGeometry>
        </mxCell>
        <mxCell id="vYt_MYBXlAKT3WQaYmDF-172" value="&#xa;&lt;span style=&quot;color: rgb(0, 0, 0); font-family: Helvetica; font-size: 12px; font-style: normal; font-variant-ligatures: normal; font-variant-caps: normal; font-weight: 700; letter-spacing: normal; orphans: 2; text-align: center; text-indent: 0px; text-transform: none; widows: 2; word-spacing: 0px; -webkit-text-stroke-width: 0px; white-space: normal; background-color: rgb(236, 236, 236); text-decoration-thickness: initial; text-decoration-style: initial; text-decoration-color: initial; display: inline !important; float: none;&quot;&gt;CIF&lt;/span&gt;&#xa;&#xa;" style="shape=partialRectangle;html=1;whiteSpace=wrap;connectable=0;strokeColor=inherit;overflow=hidden;fillColor=none;top=0;left=0;bottom=0;right=0;pointerEvents=1;fontStyle=1" vertex="1" parent="vYt_MYBXlAKT3WQaYmDF-169">
          <mxGeometry x="212" width="109" height="39" as="geometry">
            <mxRectangle width="109" height="39" as="alternateBounds" />
          </mxGeometry>
        </mxCell>
        <mxCell id="vYt_MYBXlAKT3WQaYmDF-173" value="Request ID" style="shape=partialRectangle;html=1;whiteSpace=wrap;connectable=0;strokeColor=inherit;overflow=hidden;fillColor=none;top=0;left=0;bottom=0;right=0;pointerEvents=1;fontStyle=1" vertex="1" parent="vYt_MYBXlAKT3WQaYmDF-169">
          <mxGeometry x="321" width="106" height="39" as="geometry">
            <mxRectangle width="106" height="39" as="alternateBounds" />
          </mxGeometry>
        </mxCell>
        <mxCell id="vYt_MYBXlAKT3WQaYmDF-174" value="Module Status" style="shape=partialRectangle;html=1;whiteSpace=wrap;connectable=0;strokeColor=inherit;overflow=hidden;fillColor=none;top=0;left=0;bottom=0;right=0;pointerEvents=1;fontStyle=1" vertex="1" parent="vYt_MYBXlAKT3WQaYmDF-169">
          <mxGeometry x="427" width="106" height="39" as="geometry">
            <mxRectangle width="106" height="39" as="alternateBounds" />
          </mxGeometry>
        </mxCell>
        <mxCell id="vYt_MYBXlAKT3WQaYmDF-193" value="&#xa;&lt;span style=&quot;color: rgb(0, 0, 0); font-family: Helvetica; font-size: 12px; font-style: normal; font-variant-ligatures: normal; font-variant-caps: normal; font-weight: 700; letter-spacing: normal; orphans: 2; text-align: center; text-indent: 0px; text-transform: none; widows: 2; word-spacing: 0px; -webkit-text-stroke-width: 0px; white-space: normal; background-color: rgb(236, 236, 236); text-decoration-thickness: initial; text-decoration-style: initial; text-decoration-color: initial; display: inline !important; float: none;&quot;&gt;Customer Skey&lt;/span&gt;&#xa;&#xa;" style="shape=partialRectangle;html=1;whiteSpace=wrap;connectable=0;strokeColor=inherit;overflow=hidden;fillColor=none;top=0;left=0;bottom=0;right=0;pointerEvents=1;fontStyle=1" vertex="1" parent="vYt_MYBXlAKT3WQaYmDF-169">
          <mxGeometry x="533" width="106" height="39" as="geometry">
            <mxRectangle width="106" height="39" as="alternateBounds" />
          </mxGeometry>
        </mxCell>
        <mxCell id="vYt_MYBXlAKT3WQaYmDF-196" value="Batch ID" style="shape=partialRectangle;html=1;whiteSpace=wrap;connectable=0;strokeColor=inherit;overflow=hidden;fillColor=none;top=0;left=0;bottom=0;right=0;pointerEvents=1;fontStyle=1" vertex="1" parent="vYt_MYBXlAKT3WQaYmDF-169">
          <mxGeometry x="639" width="106" height="39" as="geometry">
            <mxRectangle width="106" height="39" as="alternateBounds" />
          </mxGeometry>
        </mxCell>
        <mxCell id="vYt_MYBXlAKT3WQaYmDF-175" value="" style="shape=tableRow;horizontal=0;startSize=0;swimlaneHead=0;swimlaneBody=0;strokeColor=inherit;top=0;left=0;bottom=0;right=0;collapsible=0;dropTarget=0;fillColor=none;points=[[0,0.5],[1,0.5]];portConstraint=eastwest;" vertex="1" parent="vYt_MYBXlAKT3WQaYmDF-168">
          <mxGeometry y="39" width="745" height="39" as="geometry" />
        </mxCell>
        <mxCell id="vYt_MYBXlAKT3WQaYmDF-176" value="6" style="shape=partialRectangle;html=1;whiteSpace=wrap;connectable=0;strokeColor=inherit;overflow=hidden;fillColor=none;top=0;left=0;bottom=0;right=0;pointerEvents=1;" vertex="1" parent="vYt_MYBXlAKT3WQaYmDF-175">
          <mxGeometry width="106" height="39" as="geometry">
            <mxRectangle width="106" height="39" as="alternateBounds" />
          </mxGeometry>
        </mxCell>
        <mxCell id="vYt_MYBXlAKT3WQaYmDF-177" value="101" style="shape=partialRectangle;html=1;whiteSpace=wrap;connectable=0;strokeColor=inherit;overflow=hidden;fillColor=none;top=0;left=0;bottom=0;right=0;pointerEvents=1;" vertex="1" parent="vYt_MYBXlAKT3WQaYmDF-175">
          <mxGeometry x="106" width="106" height="39" as="geometry">
            <mxRectangle width="106" height="39" as="alternateBounds" />
          </mxGeometry>
        </mxCell>
        <mxCell id="vYt_MYBXlAKT3WQaYmDF-178" value="&#xa;&lt;span style=&quot;color: rgb(0, 0, 0); font-family: Helvetica; font-size: 12px; font-style: normal; font-variant-ligatures: normal; font-variant-caps: normal; font-weight: 400; letter-spacing: normal; orphans: 2; text-align: center; text-indent: 0px; text-transform: none; widows: 2; word-spacing: 0px; -webkit-text-stroke-width: 0px; white-space: normal; background-color: rgb(236, 236, 236); text-decoration-thickness: initial; text-decoration-style: initial; text-decoration-color: initial; display: inline !important; float: none;&quot;&gt;10001&lt;/span&gt;&#xa;&#xa;" style="shape=partialRectangle;html=1;whiteSpace=wrap;connectable=0;strokeColor=inherit;overflow=hidden;fillColor=none;top=0;left=0;bottom=0;right=0;pointerEvents=1;" vertex="1" parent="vYt_MYBXlAKT3WQaYmDF-175">
          <mxGeometry x="212" width="109" height="39" as="geometry">
            <mxRectangle width="109" height="39" as="alternateBounds" />
          </mxGeometry>
        </mxCell>
        <mxCell id="vYt_MYBXlAKT3WQaYmDF-179" value="Input" style="shape=partialRectangle;html=1;whiteSpace=wrap;connectable=0;strokeColor=inherit;overflow=hidden;fillColor=none;top=0;left=0;bottom=0;right=0;pointerEvents=1;" vertex="1" parent="vYt_MYBXlAKT3WQaYmDF-175">
          <mxGeometry x="321" width="106" height="39" as="geometry">
            <mxRectangle width="106" height="39" as="alternateBounds" />
          </mxGeometry>
        </mxCell>
        <mxCell id="vYt_MYBXlAKT3WQaYmDF-180" value="Migrated" style="shape=partialRectangle;html=1;whiteSpace=wrap;connectable=0;strokeColor=inherit;overflow=hidden;fillColor=none;top=0;left=0;bottom=0;right=0;pointerEvents=1;" vertex="1" parent="vYt_MYBXlAKT3WQaYmDF-175">
          <mxGeometry x="427" width="106" height="39" as="geometry">
            <mxRectangle width="106" height="39" as="alternateBounds" />
          </mxGeometry>
        </mxCell>
        <mxCell id="vYt_MYBXlAKT3WQaYmDF-194" value="&#xa;&lt;span style=&quot;color: rgb(0, 0, 0); font-family: Helvetica; font-size: 12px; font-style: normal; font-variant-ligatures: normal; font-variant-caps: normal; font-weight: 400; letter-spacing: normal; orphans: 2; text-align: center; text-indent: 0px; text-transform: none; widows: 2; word-spacing: 0px; -webkit-text-stroke-width: 0px; white-space: normal; background-color: rgb(236, 236, 236); text-decoration-thickness: initial; text-decoration-style: initial; text-decoration-color: initial; display: inline !important; float: none;&quot;&gt;5001&lt;/span&gt;&#xa;&#xa;" style="shape=partialRectangle;html=1;whiteSpace=wrap;connectable=0;strokeColor=inherit;overflow=hidden;fillColor=none;top=0;left=0;bottom=0;right=0;pointerEvents=1;" vertex="1" parent="vYt_MYBXlAKT3WQaYmDF-175">
          <mxGeometry x="533" width="106" height="39" as="geometry">
            <mxRectangle width="106" height="39" as="alternateBounds" />
          </mxGeometry>
        </mxCell>
        <mxCell id="vYt_MYBXlAKT3WQaYmDF-197" value="&#xa;&lt;span style=&quot;color: rgb(0, 0, 0); font-family: Helvetica; font-size: 12px; font-style: normal; font-variant-ligatures: normal; font-variant-caps: normal; font-weight: 400; letter-spacing: normal; orphans: 2; text-align: center; text-indent: 0px; text-transform: none; widows: 2; word-spacing: 0px; -webkit-text-stroke-width: 0px; white-space: normal; background-color: rgb(236, 236, 236); text-decoration-thickness: initial; text-decoration-style: initial; text-decoration-color: initial; display: inline !important; float: none;&quot;&gt;123&lt;/span&gt;&#xa;&#xa;" style="shape=partialRectangle;html=1;whiteSpace=wrap;connectable=0;strokeColor=inherit;overflow=hidden;fillColor=none;top=0;left=0;bottom=0;right=0;pointerEvents=1;" vertex="1" parent="vYt_MYBXlAKT3WQaYmDF-175">
          <mxGeometry x="639" width="106" height="39" as="geometry">
            <mxRectangle width="106" height="39" as="alternateBounds" />
          </mxGeometry>
        </mxCell>
        <mxCell id="vYt_MYBXlAKT3WQaYmDF-181" value="" style="shape=tableRow;horizontal=0;startSize=0;swimlaneHead=0;swimlaneBody=0;strokeColor=inherit;top=0;left=0;bottom=0;right=0;collapsible=0;dropTarget=0;fillColor=none;points=[[0,0.5],[1,0.5]];portConstraint=eastwest;" vertex="1" parent="vYt_MYBXlAKT3WQaYmDF-168">
          <mxGeometry y="78" width="745" height="39" as="geometry" />
        </mxCell>
        <mxCell id="vYt_MYBXlAKT3WQaYmDF-182" value="6" style="shape=partialRectangle;html=1;whiteSpace=wrap;connectable=0;strokeColor=inherit;overflow=hidden;fillColor=none;top=0;left=0;bottom=0;right=0;pointerEvents=1;" vertex="1" parent="vYt_MYBXlAKT3WQaYmDF-181">
          <mxGeometry width="106" height="39" as="geometry">
            <mxRectangle width="106" height="39" as="alternateBounds" />
          </mxGeometry>
        </mxCell>
        <mxCell id="vYt_MYBXlAKT3WQaYmDF-183" value="101" style="shape=partialRectangle;html=1;whiteSpace=wrap;connectable=0;strokeColor=inherit;overflow=hidden;fillColor=none;top=0;left=0;bottom=0;right=0;pointerEvents=1;" vertex="1" parent="vYt_MYBXlAKT3WQaYmDF-181">
          <mxGeometry x="106" width="106" height="39" as="geometry">
            <mxRectangle width="106" height="39" as="alternateBounds" />
          </mxGeometry>
        </mxCell>
        <mxCell id="vYt_MYBXlAKT3WQaYmDF-184" value="10004" style="shape=partialRectangle;html=1;whiteSpace=wrap;connectable=0;strokeColor=inherit;overflow=hidden;fillColor=none;top=0;left=0;bottom=0;right=0;pointerEvents=1;" vertex="1" parent="vYt_MYBXlAKT3WQaYmDF-181">
          <mxGeometry x="212" width="109" height="39" as="geometry">
            <mxRectangle width="109" height="39" as="alternateBounds" />
          </mxGeometry>
        </mxCell>
        <mxCell id="vYt_MYBXlAKT3WQaYmDF-185" value="Input" style="shape=partialRectangle;html=1;whiteSpace=wrap;connectable=0;strokeColor=inherit;overflow=hidden;fillColor=none;top=0;left=0;bottom=0;right=0;pointerEvents=1;" vertex="1" parent="vYt_MYBXlAKT3WQaYmDF-181">
          <mxGeometry x="321" width="106" height="39" as="geometry">
            <mxRectangle width="106" height="39" as="alternateBounds" />
          </mxGeometry>
        </mxCell>
        <mxCell id="vYt_MYBXlAKT3WQaYmDF-186" value="Migrated" style="shape=partialRectangle;html=1;whiteSpace=wrap;connectable=0;strokeColor=inherit;overflow=hidden;fillColor=none;top=0;left=0;bottom=0;right=0;pointerEvents=1;" vertex="1" parent="vYt_MYBXlAKT3WQaYmDF-181">
          <mxGeometry x="427" width="106" height="39" as="geometry">
            <mxRectangle width="106" height="39" as="alternateBounds" />
          </mxGeometry>
        </mxCell>
        <mxCell id="vYt_MYBXlAKT3WQaYmDF-195" value="5002" style="shape=partialRectangle;html=1;whiteSpace=wrap;connectable=0;strokeColor=inherit;overflow=hidden;fillColor=none;top=0;left=0;bottom=0;right=0;pointerEvents=1;" vertex="1" parent="vYt_MYBXlAKT3WQaYmDF-181">
          <mxGeometry x="533" width="106" height="39" as="geometry">
            <mxRectangle width="106" height="39" as="alternateBounds" />
          </mxGeometry>
        </mxCell>
        <mxCell id="vYt_MYBXlAKT3WQaYmDF-198" value="&#xa;&lt;span style=&quot;color: rgb(0, 0, 0); font-family: Helvetica; font-size: 12px; font-style: normal; font-variant-ligatures: normal; font-variant-caps: normal; font-weight: 400; letter-spacing: normal; orphans: 2; text-align: center; text-indent: 0px; text-transform: none; widows: 2; word-spacing: 0px; -webkit-text-stroke-width: 0px; white-space: normal; background-color: rgb(236, 236, 236); text-decoration-thickness: initial; text-decoration-style: initial; text-decoration-color: initial; display: inline !important; float: none;&quot;&gt;123&lt;/span&gt;&#xa;&#xa;" style="shape=partialRectangle;html=1;whiteSpace=wrap;connectable=0;strokeColor=inherit;overflow=hidden;fillColor=none;top=0;left=0;bottom=0;right=0;pointerEvents=1;" vertex="1" parent="vYt_MYBXlAKT3WQaYmDF-181">
          <mxGeometry x="639" width="106" height="39" as="geometry">
            <mxRectangle width="106" height="39" as="alternateBounds" />
          </mxGeometry>
        </mxCell>
        <mxCell id="vYt_MYBXlAKT3WQaYmDF-199" value="CR_MODULE_STATUS_HISTORY" style="text;html=1;align=center;verticalAlign=middle;resizable=0;points=[];autosize=1;strokeColor=none;fillColor=none;fontStyle=1" vertex="1" parent="1">
          <mxGeometry x="1289" y="664" width="205" height="26" as="geometry" />
        </mxCell>
        <mxCell id="vYt_MYBXlAKT3WQaYmDF-200" style="edgeStyle=orthogonalEdgeStyle;rounded=0;orthogonalLoop=1;jettySize=auto;html=1;exitX=1;exitY=0.5;exitDx=0;exitDy=0;entryX=0;entryY=0.5;entryDx=0;entryDy=0;" edge="1" parent="1" source="vYt_MYBXlAKT3WQaYmDF-154" target="vYt_MYBXlAKT3WQaYmDF-175">
          <mxGeometry relative="1" as="geometry" />
        </mxCell>
        <mxCell id="vYt_MYBXlAKT3WQaYmDF-201" value="Target Table" style="swimlane;whiteSpace=wrap;html=1;" vertex="1" parent="1">
          <mxGeometry x="1245" y="70" width="348" height="489" as="geometry" />
        </mxCell>
        <mxCell id="vYt_MYBXlAKT3WQaYmDF-202" value="CR_MODULE_STATUS_HISTORY" style="swimlane;fontStyle=1;childLayout=stackLayout;horizontal=1;startSize=30;horizontalStack=0;resizeParent=1;resizeParentMax=0;resizeLast=0;collapsible=1;marginBottom=0;whiteSpace=wrap;html=1;" vertex="1" parent="vYt_MYBXlAKT3WQaYmDF-201">
          <mxGeometry x="27.5" y="129.5" width="292" height="240" as="geometry" />
        </mxCell>
        <mxCell id="vYt_MYBXlAKT3WQaYmDF-204" value="&lt;b style=&quot;text-align: center;&quot;&gt;Module ID&lt;/b&gt;" style="text;strokeColor=none;fillColor=none;align=left;verticalAlign=middle;spacingLeft=4;spacingRight=4;overflow=hidden;points=[[0,0.5],[1,0.5]];portConstraint=eastwest;rotatable=0;whiteSpace=wrap;html=1;" vertex="1" parent="vYt_MYBXlAKT3WQaYmDF-202">
          <mxGeometry y="30" width="292" height="30" as="geometry" />
        </mxCell>
        <mxCell id="vYt_MYBXlAKT3WQaYmDF-205" value="&lt;b style=&quot;text-align: center;&quot;&gt;Workflow ID&lt;/b&gt;" style="text;strokeColor=none;fillColor=none;align=left;verticalAlign=middle;spacingLeft=4;spacingRight=4;overflow=hidden;points=[[0,0.5],[1,0.5]];portConstraint=eastwest;rotatable=0;whiteSpace=wrap;html=1;" vertex="1" parent="vYt_MYBXlAKT3WQaYmDF-202">
          <mxGeometry y="60" width="292" height="30" as="geometry" />
        </mxCell>
        <mxCell id="vYt_MYBXlAKT3WQaYmDF-206" value="&lt;div style=&quot;text-align: center;&quot;&gt;&lt;span style=&quot;background-color: transparent; color: light-dark(rgb(0, 0, 0), rgb(255, 255, 255));&quot;&gt;&lt;b&gt;CIF&lt;/b&gt;&lt;/span&gt;&lt;/div&gt;" style="text;strokeColor=none;fillColor=none;align=left;verticalAlign=middle;spacingLeft=4;spacingRight=4;overflow=hidden;points=[[0,0.5],[1,0.5]];portConstraint=eastwest;rotatable=0;whiteSpace=wrap;html=1;" vertex="1" parent="vYt_MYBXlAKT3WQaYmDF-202">
          <mxGeometry y="90" width="292" height="30" as="geometry" />
        </mxCell>
        <mxCell id="vYt_MYBXlAKT3WQaYmDF-207" value="&lt;div style=&quot;text-align: center;&quot;&gt;&lt;span style=&quot;background-color: transparent; color: light-dark(rgb(0, 0, 0), rgb(255, 255, 255));&quot;&gt;&lt;b&gt;Request ID&lt;/b&gt;&lt;/span&gt;&lt;/div&gt;" style="text;strokeColor=none;fillColor=none;align=left;verticalAlign=middle;spacingLeft=4;spacingRight=4;overflow=hidden;points=[[0,0.5],[1,0.5]];portConstraint=eastwest;rotatable=0;whiteSpace=wrap;html=1;" vertex="1" parent="vYt_MYBXlAKT3WQaYmDF-202">
          <mxGeometry y="120" width="292" height="30" as="geometry" />
        </mxCell>
        <mxCell id="vYt_MYBXlAKT3WQaYmDF-208" value="&lt;div style=&quot;text-align: center;&quot;&gt;&lt;span style=&quot;background-color: transparent; color: light-dark(rgb(0, 0, 0), rgb(255, 255, 255));&quot;&gt;&lt;b&gt;Module Status&lt;/b&gt;&lt;/span&gt;&lt;/div&gt;" style="text;strokeColor=none;fillColor=none;align=left;verticalAlign=middle;spacingLeft=4;spacingRight=4;overflow=hidden;points=[[0,0.5],[1,0.5]];portConstraint=eastwest;rotatable=0;whiteSpace=wrap;html=1;" vertex="1" parent="vYt_MYBXlAKT3WQaYmDF-202">
          <mxGeometry y="150" width="292" height="30" as="geometry" />
        </mxCell>
        <mxCell id="vYt_MYBXlAKT3WQaYmDF-209" value="&lt;div style=&quot;text-align: center;&quot;&gt;&lt;span style=&quot;background-color: transparent; color: light-dark(rgb(0, 0, 0), rgb(255, 255, 255));&quot;&gt;&lt;b&gt;Customer Skey&lt;/b&gt;&lt;/span&gt;&lt;/div&gt;" style="text;strokeColor=none;fillColor=none;align=left;verticalAlign=middle;spacingLeft=4;spacingRight=4;overflow=hidden;points=[[0,0.5],[1,0.5]];portConstraint=eastwest;rotatable=0;whiteSpace=wrap;html=1;" vertex="1" parent="vYt_MYBXlAKT3WQaYmDF-202">
          <mxGeometry y="180" width="292" height="30" as="geometry" />
        </mxCell>
        <mxCell id="vYt_MYBXlAKT3WQaYmDF-218" value="&lt;div style=&quot;text-align: center;&quot;&gt;&lt;span style=&quot;background-color: transparent; color: light-dark(rgb(0, 0, 0), rgb(255, 255, 255));&quot;&gt;&lt;b&gt;Batch ID&lt;/b&gt;&lt;/span&gt;&lt;/div&gt;" style="text;strokeColor=none;fillColor=none;align=left;verticalAlign=middle;spacingLeft=4;spacingRight=4;overflow=hidden;points=[[0,0.5],[1,0.5]];portConstraint=eastwest;rotatable=0;whiteSpace=wrap;html=1;" vertex="1" parent="vYt_MYBXlAKT3WQaYmDF-202">
          <mxGeometry y="210" width="292" height="30" as="geometry" />
        </mxCell>
      </root>
    </mxGraphModel>
  </diagram>
</mxfile>
